VIDEO INFO


Format                           : AVI
Format/Info                      : Audio Video Interleave
Format profile                   : OpenDML
Format settings                  : rec
File size                        : 1.22 GiB
Duration                         : 1h 43mn
Overall bit rate                 : 1 689 Kbps
Movie name                       : Fright Night Part 2 (1988) 720p.Title1.DVDRip
Writing application              : AVI-Mux GUI 1.17.7, Aug  8 2006  20:59:17

Video
ID                               : 0
Format                           : MPEG-4 Visual
Format profile                   : Advanced Simple@L5
Format settings, BVOP            : 2
Format settings, QPel            : No
Format settings, GMC             : No warppoints
Format settings, Matrix          : Default (H.263)
Muxing mode                      : Packed bitstream
Codec ID                         : XVID
Codec ID/Hint                    : XviD
Duration                         : 1h 43mn
Bit rate                         : 1 236 Kbps
Width                            : 720 pixels
Height                           : 406 pixels
Display aspect ratio             : 16:9
Frame rate                       : 25.000 fps
Color space                      : YUV
Chroma subsampling               : 4:2:0
Bit depth                        : 8 bits
Scan type                        : Progressive
Compression mode                 : Lossy
Bits/(Pixel*Frame)               : 0.169
Stream size                      : 916 MiB (73%)
Writing library                  : XviD 1.2.1 (UTC 2008-12-04)

Audio
ID                               : 1
Format                           : AC-3
Format/Info                      : Audio Coding 3
Mode extension                   : CM (complete main)
Codec ID                         : 2000
Duration                         : 1h 43mn
Bit rate mode                    : Constant
Bit rate                         : 448 Kbps
Channel(s)                       : 6 channels
Channel positions                : Front: L C R, Side: L R, LFE
Sampling rate                    : 48.0 KHz
Bit depth                        : 16 bits
Compression mode                 : Lossy
Stream size                      : 332 MiB (27%)
Alignment                        : Aligned on interleaves
Interleave, duration             : 64 ms (1.60 video frames)
Interleave, preload duration     : 192 ms

Text
ID                               : 2
Stream size                      : 48.8 KiB (0%)

-------------------------------------

Verenigde Staten
Horror
108 minuten

geregisseerd door Tommy Lee Wallace
met Roddy McDowall, William Ragsdale en Traci Lind

Na drie jaar denkt Charley Brewster eindelijk hersteld te zijn van zijn gevecht met een vampier. Een nieuwe ontmoeting met tv-vampierenjager Peter Vincent brengt hier echter verandering in, want die heeft zojuist nieuwe buren gekregen die zich uiterst bizar gedragen. De nieuwe buurvrouw vergast Charley meteen op een nachtelijk bezoekje waarbij deze zich gewillig in de nek laat bijten.

-Ondertiteling (nederlands) met de mogelijkheid deze aan/uit te zetten.